<svg width="16" height="16" viewBox="0 0 16 16" fill="none" xmlns="http://www.w3.org/2000/svg">
<path d="M10.3263 6.41994C10.2063 4.55996 9.45298 2.74665 8.03966 1.33333C6.61301 2.75998 5.82636 4.57329 5.67303 6.41994C6.52635 6.87327 7.313 7.45993 7.99966 8.17325C8.68632 7.46659 9.47298 6.87993 10.3263 6.41994ZM8.033 3.45997C8.45299 4.14663 8.74632 4.91329 8.89965 5.71328C8.58632 5.91328 8.29299 6.13327 8.00633 6.36661C7.72633 6.13994 7.42634 5.91994 7.11967 5.71995C7.28634 4.91996 7.593 4.1533 8.033 3.45997ZM7.99966 10.2999C7.453 9.46657 6.75968 8.73991 5.95969 8.16658C5.87302 8.10658 5.77969 8.05992 5.69303 7.99325C5.77969 8.05325 5.87302 8.10658 5.95302 8.15992C4.65304 7.21993 3.05972 6.6666 1.33308 6.6666C1.33308 10.2132 3.57305 13.2132 6.68635 14.3265C7.10634 14.4798 7.54634 14.5932 7.99966 14.6665C8.45299 14.5865 8.88632 14.4732 9.31298 14.3265C12.4263 13.2132 14.6662 10.2132 14.6662 6.6666C11.8796 6.6666 9.43298 8.11325 7.99966 10.2999ZM8.87965 13.0665C8.58632 13.1665 8.29299 13.2465 7.993 13.3132C7.69967 13.2532 7.413 13.1732 7.13967 13.0732C4.94637 12.2865 3.33972 10.4132 2.83973 8.17325C3.57305 8.34658 4.27304 8.64658 4.9197 9.05991L4.90637 9.06657C4.99303 9.12657 5.0797 9.18657 5.16636 9.23324L5.21303 9.2599C5.87302 9.7399 6.43968 10.3332 6.88634 11.0265L7.99966 12.7332L9.11298 11.0332C9.57298 10.3332 10.1463 9.73323 10.7996 9.2599L10.8463 9.22657C10.9063 9.19324 10.9663 9.15324 11.0263 9.11324L11.0196 9.0999C11.673 8.66658 12.3996 8.34658 13.1596 8.16658C12.6596 10.4132 11.0596 12.2865 8.87965 13.0665ZM5.99302 8.18658C5.97969 8.17992 5.96635 8.16658 5.95969 8.15992C5.95969 8.15992 5.96636 8.15992 5.96636 8.16658C5.97302 8.17325 5.97969 8.17992 5.99302 8.18658Z" fill="#1FA4A2"/>
</svg>
