<svg width="24" height="24" viewBox="0 0 24 24" fill="none" xmlns="http://www.w3.org/2000/svg">
<path d="M18 13.0007H17.32L15.32 15.0007H17.23L19 17.0007H5L6.78 15.0007H8.83L6.83 13.0007H6L3 16.0007V20.0007C3 21.1007 3.89 22.0007 4.99 22.0007H19C20.1 22.0007 21 21.1107 21 20.0007V16.0007L18 13.0007ZM19 20.0007H5V19.0007H19V20.0007ZM11.34 15.0207C11.73 15.4107 12.36 15.4107 12.75 15.0207L19.11 8.66065C19.5 8.27065 19.5 7.64065 19.11 7.25065L14.16 2.30065C13.78 1.90065 13.15 1.90065 12.76 2.29065L6.39 8.66065C6 9.05065 6 9.68065 6.39 10.0707L11.34 15.0207ZM13.46 4.41065L17 7.95065L12.05 12.9007L8.51 9.36065L13.46 4.41065Z" fill="#1FA4A2"/>
</svg>
