<svg width="15" height="15" viewBox="0 0 15 15" fill="none" xmlns="http://www.w3.org/2000/svg">
<path d="M15 7.5C15 3.35786 11.6421 0 7.5 0C3.35786 0 0 3.35786 0 7.5C0 11.2435 2.74266 14.3462 6.32812 14.9089V9.66797H4.42383V7.5H6.32812V5.84766C6.32812 3.96797 7.44782 2.92969 9.16099 2.92969C9.98156 2.92969 10.8398 3.07617 10.8398 3.07617V4.92188H9.89411C8.96244 4.92188 8.67188 5.49999 8.67188 6.09311V7.5H10.752L10.4194 9.66797H8.67188V14.9089C12.2574 14.3462 15 11.2435 15 7.5Z" fill="#1877F2"/>
<path d="M10.4194 9.66797L10.752 7.5H8.67188V6.09311C8.67188 5.49999 8.96241 4.92188 9.89411 4.92188H10.8398V3.07617C10.8398 3.07617 9.98153 2.92969 9.16099 2.92969C7.44782 2.92969 6.32812 3.96797 6.32812 5.84766V7.5H4.42383V9.66797H6.32812V14.9089C6.70995 14.9688 7.10133 15 7.5 15C7.89867 15 8.29002 14.9688 8.67188 14.9089V9.66797H10.4194Z" fill="white"/>
</svg>
