<svg width="25" height="25" viewBox="0 0 25 25" fill="none" xmlns="http://www.w3.org/2000/svg">
<path d="M4.16667 13.5417C5.3125 13.5417 6.25 12.6042 6.25 11.4583C6.25 10.3125 5.3125 9.375 4.16667 9.375C3.02083 9.375 2.08333 10.3125 2.08333 11.4583C2.08333 12.6042 3.02083 13.5417 4.16667 13.5417ZM5.34375 14.6875C4.95833 14.625 4.57292 14.5833 4.16667 14.5833C3.13542 14.5833 2.15625 14.8021 1.27083 15.1875C0.5 15.5208 0 16.2708 0 17.1146V18.75H4.6875V17.0729C4.6875 16.2083 4.92708 15.3958 5.34375 14.6875ZM20.8333 13.5417C21.9792 13.5417 22.9167 12.6042 22.9167 11.4583C22.9167 10.3125 21.9792 9.375 20.8333 9.375C19.6875 9.375 18.75 10.3125 18.75 11.4583C18.75 12.6042 19.6875 13.5417 20.8333 13.5417ZM25 17.1146C25 16.2708 24.5 15.5208 23.7292 15.1875C22.8438 14.8021 21.8646 14.5833 20.8333 14.5833C20.4271 14.5833 20.0417 14.625 19.6562 14.6875C20.0729 15.3958 20.3125 16.2083 20.3125 17.0729V18.75H25V17.1146ZM16.9167 14.2187C15.6979 13.6771 14.1979 13.2812 12.5 13.2812C10.8021 13.2812 9.30208 13.6875 8.08333 14.2187C6.95833 14.7187 6.25 15.8437 6.25 17.0729V18.75H18.75V17.0729C18.75 15.8437 18.0417 14.7187 16.9167 14.2187ZM8.40625 16.6667C8.5 16.4271 8.54167 16.2604 9.35417 15.9479C10.3646 15.5521 11.4271 15.3646 12.5 15.3646C13.5729 15.3646 14.6354 15.5521 15.6458 15.9479C16.4479 16.2604 16.4896 16.4271 16.5938 16.6667H8.40625ZM12.5 8.33333C13.0729 8.33333 13.5417 8.80208 13.5417 9.375C13.5417 9.94792 13.0729 10.4167 12.5 10.4167C11.9271 10.4167 11.4583 9.94792 11.4583 9.375C11.4583 8.80208 11.9271 8.33333 12.5 8.33333ZM12.5 6.25C10.7708 6.25 9.375 7.64583 9.375 9.375C9.375 11.1042 10.7708 12.5 12.5 12.5C14.2292 12.5 15.625 11.1042 15.625 9.375C15.625 7.64583 14.2292 6.25 12.5 6.25Z" fill="#1FA4A2"/>
</svg>
