<svg width="22" height="12" viewBox="0 0 22 12" fill="none" xmlns="http://www.w3.org/2000/svg">
<path d="M21.9131 8.34786V9.39135L13.5653 12.0001L6.2609 9.9757V11.4783H0V0H8.31656L14.7444 2.40001C15.9131 2.83827 16.6957 3.96523 16.6957 5.21741H18.7827C20.5149 5.21741 21.9131 6.61568 21.9131 8.34786ZM4.17393 9.39135V2.08697H2.08697V9.39135H4.17393ZM19.7218 7.89916C19.5549 7.55482 19.1897 7.31482 18.7827 7.31482H13.2001C12.6366 7.31482 12.0835 7.2209 11.5514 7.04351L9.06787 6.21916L9.72526 4.23654L12.2088 5.06089C12.5322 5.16524 14.6088 5.21741 14.6088 5.21741C14.6088 4.83133 14.3688 4.48698 14.014 4.35132L7.94091 2.08697H6.2609V7.80525L13.534 9.81917L19.7218 7.89916Z" fill="#1FA4A2"/>
</svg>
