<svg width="16" height="15" viewBox="0 0 16 15" fill="none" xmlns="http://www.w3.org/2000/svg">
<path d="M15.7595 7.67974C15.7595 7.17321 15.707 6.65034 15.6194 6.16016H8.03516V9.05226H12.379C12.2039 9.98362 11.6258 10.8006 10.7676 11.3235L13.3599 13.2025C14.8837 11.879 15.7595 9.95094 15.7595 7.67974Z" fill="#4280EF"/>
<path d="M8.03538 15C10.2073 15 12.0289 14.3301 13.3601 13.1863L10.7678 11.3236C10.0497 11.7811 9.12134 12.0425 8.03538 12.0425C5.93351 12.0425 4.16444 10.719 3.51637 8.95435L0.854004 10.8661C2.22022 13.3987 4.98767 15 8.03538 15Z" fill="#34A353"/>
<path d="M3.51624 8.93812C3.18345 8.00676 3.18345 6.9937 3.51624 6.06235L0.853883 4.13428C-0.284628 6.25842 -0.284628 8.75838 0.853883 10.8662L3.51624 8.93812Z" fill="#F6B704"/>
<path d="M8.03538 2.97409C9.17389 2.95775 10.2949 3.36624 11.1181 4.10152L13.4126 1.9447C11.9589 0.670208 10.0321 -0.0160544 8.03538 0.000285173C4.98767 0.000285173 2.22022 1.60157 0.854004 4.1342L3.51637 6.06227C4.16444 4.28126 5.93351 2.97409 8.03538 2.97409Z" fill="#E54335"/>
</svg>
