<svg width="322" height="395" viewBox="0 0 322 395" fill="none" xmlns="http://www.w3.org/2000/svg">
<g filter="url(#filter0_d_142_1275)">
<path fill-rule="evenodd" clip-rule="evenodd" d="M10 0C4.47715 0 0 4.47716 0 10V198.605H0.000285149C5.21371 198.605 9.44002 202.416 9.44002 207.117C9.44002 211.819 5.21371 215.63 0.000285149 215.63H0V275.701H0.000285149C5.21371 275.701 9.44002 279.512 9.44002 284.214C9.44002 288.915 5.21371 292.726 0.000285149 292.726H0V385C0 386.395 0.285722 387.724 0.801845 388.93C2.52172 386.838 5.28022 385.482 8.38993 385.482C13.6034 385.482 17.8297 389.293 17.8297 393.995C17.8297 394.335 17.8076 394.67 17.7645 395H17.8948C17.8518 394.67 17.8297 394.335 17.8297 393.995C17.8297 389.293 22.056 385.482 27.2694 385.482C32.4828 385.482 36.7091 389.293 36.7091 393.995C36.7091 394.335 36.687 394.67 36.644 395H36.7743C36.7313 394.67 36.7091 394.335 36.7091 393.995C36.7091 389.293 40.9355 385.482 46.1489 385.482C51.3623 385.482 55.5886 389.293 55.5886 393.995C55.5886 394.335 55.5665 394.67 55.5235 395H55.6538C55.6107 394.67 55.5886 394.335 55.5886 393.995C55.5886 389.293 59.8149 385.482 65.0284 385.482C70.2418 385.482 74.4681 389.293 74.4681 393.995C74.4681 394.335 74.446 394.67 74.403 395H74.5332C74.4902 394.67 74.4681 394.335 74.4681 393.995C74.4681 389.293 78.6944 385.482 83.9078 385.482C89.1213 385.482 93.3476 389.293 93.3476 393.995C93.3476 394.335 93.3255 394.67 93.2824 395H93.4127C93.3697 394.67 93.3476 394.335 93.3476 393.995C93.3476 389.293 97.5739 385.482 102.787 385.482C108.001 385.482 112.227 389.293 112.227 393.995C112.227 394.335 112.205 394.67 112.162 395H112.292C112.249 394.67 112.227 394.335 112.227 393.995C112.227 389.293 116.453 385.482 121.667 385.482C126.88 385.482 131.107 389.293 131.107 393.995C131.107 394.335 131.084 394.67 131.041 395H131.172C131.129 394.67 131.107 394.335 131.107 393.995C131.107 389.293 135.333 385.482 140.546 385.482C145.76 385.482 149.986 389.293 149.986 393.995C149.986 394.335 149.964 394.67 149.921 395H150.051C150.008 394.67 149.986 394.335 149.986 393.995C149.986 389.293 154.212 385.482 159.426 385.482C164.639 385.482 168.865 389.293 168.865 393.995C168.865 394.335 168.843 394.67 168.8 395H168.931C168.888 394.67 168.865 394.335 168.865 393.995C168.865 389.293 173.092 385.482 178.305 385.482C183.519 385.482 187.745 389.293 187.745 393.995C187.745 394.335 187.723 394.67 187.68 395H187.81C187.767 394.67 187.745 394.335 187.745 393.995C187.745 389.293 191.971 385.482 197.185 385.482C202.398 385.482 206.624 389.293 206.624 393.995C206.624 394.335 206.602 394.67 206.559 395H206.69C206.647 394.67 206.624 394.335 206.624 393.995C206.624 389.293 210.851 385.482 216.064 385.482C221.278 385.482 225.504 389.293 225.504 393.995C225.504 394.335 225.482 394.67 225.439 395H225.569C225.526 394.67 225.504 394.335 225.504 393.995C225.504 389.293 229.73 385.482 234.944 385.482C240.157 385.482 244.383 389.293 244.383 393.995C244.383 394.335 244.361 394.67 244.318 395H244.449C244.406 394.67 244.383 394.335 244.383 393.995C244.383 389.293 248.61 385.482 253.823 385.482C259.037 385.482 263.263 389.293 263.263 393.995C263.263 394.335 263.241 394.67 263.198 395H263.328C263.285 394.67 263.263 394.335 263.263 393.995C263.263 389.293 267.489 385.482 272.703 385.482C277.91 385.482 282.133 389.285 282.142 393.979C282.151 389.285 286.374 385.482 291.582 385.482C295.706 385.482 299.212 387.866 300.497 391.19C301.783 387.866 305.289 385.482 309.413 385.482C314.033 385.482 317.879 388.476 318.693 392.43C320.724 390.599 322 387.949 322 385V292.675C317.28 292.204 313.608 288.596 313.608 284.214C313.608 279.832 317.28 276.223 322 275.753V215.578C317.28 215.108 313.608 211.499 313.608 207.117C313.608 202.735 317.28 199.127 322 198.656V10C322 4.47715 317.523 0 312 0H10ZM282.077 395C282.12 394.675 282.142 394.345 282.142 394.01C282.143 394.345 282.165 394.675 282.207 395H282.077Z" fill="#D9D9D9" fill-opacity="0.5" shape-rendering="crispEdges"/>
</g>
<defs>
<filter id="filter0_d_142_1275" x="-51" y="-38" width="432" height="505" filterUnits="userSpaceOnUse" color-interpolation-filters="sRGB">
<feFlood flood-opacity="0" result="BackgroundImageFix"/>
<feColorMatrix in="SourceAlpha" type="matrix" values="0 0 0 0 0 0 0 0 0 0 0 0 0 0 0 0 0 0 127 0" result="hardAlpha"/>
<feOffset dx="4" dy="17"/>
<feGaussianBlur stdDeviation="27.5"/>
<feComposite in2="hardAlpha" operator="out"/>
<feColorMatrix type="matrix" values="0 0 0 0 0 0 0 0 0 0 0 0 0 0 0 0 0 0 0.05 0"/>
<feBlend mode="normal" in2="BackgroundImageFix" result="effect1_dropShadow_142_1275"/>
<feBlend mode="normal" in="SourceGraphic" in2="effect1_dropShadow_142_1275" result="shape"/>
</filter>
</defs>
</svg>
