<svg width="184" height="40" viewBox="0 0 184 40" fill="none" xmlns="http://www.w3.org/2000/svg">
<path d="M20 40C31.0457 40 40 31.0457 40 20C40 8.95431 31.0457 0 20 0C8.95431 0 0 8.95431 0 20C0 31.0457 8.95431 40 20 40Z" fill="#00AED6"/>
<path d="M20 40C31.0457 40 40 31.0457 40 20C40 8.95431 31.0457 0 20 0C8.95431 0 0 8.95431 0 20C0 31.0457 8.95431 40 20 40Z" fill="#00AED6"/>
<path fill-rule="evenodd" clip-rule="evenodd" d="M31.6487 19.3772C31.5013 16.8375 29.3401 14.8879 26.7987 15.0022H14.1654C13.7052 15.0022 13.3321 14.6291 13.3321 14.1688C13.3321 13.7086 13.7052 13.3355 14.1654 13.3355H26.9653C26.8961 11.6064 25.7168 10.1205 24.0486 9.66049C20.3192 9.00217 16.5033 9.00217 12.7738 9.66049C10.6538 10.1827 9.06791 11.947 8.7738 14.1105C8.18217 18.0355 8.18217 22.0271 8.7738 25.9522C9.2242 28.2368 11.0373 30.0068 13.3321 30.4021C17.9616 30.9772 22.6444 30.9772 27.2738 30.4021C29.3326 29.9807 30.8903 28.2887 31.1406 26.2022C31.5551 23.9521 31.7255 21.6638 31.6487 19.3772ZM27.4987 22.1772V22.9188C27.4987 23.3791 27.1256 23.7521 26.6654 23.7521C26.2052 23.7521 25.8321 23.3791 25.8321 22.9188V22.1772C25.5658 21.9437 25.4138 21.6063 25.4154 21.2522C25.4154 20.5618 25.975 20.0022 26.6654 20.0022C27.3558 20.0022 27.9154 20.5618 27.9154 21.2522C27.917 21.6063 27.765 21.9437 27.4987 22.1771V22.1772Z" fill="white"/>
<path d="M55.8106 29.9561C57.5081 32.3778 60.3309 33.7573 63.2846 33.6084C66.7676 33.6084 69.3296 31.3834 69.3296 28.3594V26.7644H69.2449C67.3366 28.6295 64.7312 29.6049 62.0672 29.4515C57.8586 29.5724 53.9131 27.4096 51.7512 23.7967C49.5893 20.1838 49.5484 15.6847 51.6442 12.033C53.74 8.38134 57.6455 6.14719 61.8556 6.19144C64.5702 6.01726 67.2386 6.95707 69.2449 8.79399H69.3296V6.61139H75.2931V28.2764C75.2931 34.5736 70.2963 38.9405 63.2846 38.9405C58.6918 39.1909 54.2575 37.2237 51.3608 33.6507L55.8106 29.9561ZM69.0789 16.4779C69.0789 13.9584 66.224 11.6488 63.0338 11.6488C59.0006 11.6488 56.3151 14.0853 56.3151 17.7377C56.1955 19.4682 56.8459 21.1632 58.0924 22.3695C59.3389 23.5758 61.0543 24.1704 62.78 23.9942C66.2663 23.9942 69.0789 21.81 69.0789 19.0805V16.4779ZM90.9115 5.9815C98.1771 5.9815 103.467 11.1459 103.467 17.7377C103.467 24.3295 98.1771 29.4939 90.9115 29.4939C86.5276 29.7813 82.348 27.6055 80.0688 23.8496C77.7897 20.0937 77.7897 15.3817 80.0688 11.6258C82.348 7.86987 86.5276 5.69412 90.9115 5.9815ZM90.9115 11.4389C87.4389 11.4625 84.6408 14.2926 84.6563 17.7652C84.672 21.2379 87.4956 24.0426 90.9683 24.0351C94.441 24.0274 97.2522 21.2104 97.2527 17.7377C97.3314 16.0368 96.6871 14.3819 95.4791 13.1819C94.2711 11.9819 92.6119 11.3487 90.9115 11.4389ZM106.826 6.61139H112.79V8.58404H112.874C114.823 6.79204 117.408 5.85479 120.052 5.9815C126.454 6.09701 131.587 11.3138 131.599 17.7169C131.61 24.1201 126.496 29.3553 120.094 29.4939C117.567 29.5522 115.1 28.7196 113.125 27.142H113.04V38.3106H106.826V6.61139ZM119.089 11.4811C115.811 11.4811 113.04 13.7907 113.04 16.3103V19.1228C113.04 21.81 115.729 24.0349 119.128 24.0349C122.594 24.0241 125.396 21.2051 125.385 17.7385C125.374 14.2719 122.555 11.4704 119.089 11.4811ZM143.314 15.5958C147.386 15.0505 148.604 14.4629 148.604 13.3285C148.604 11.8588 147.051 10.9782 144.658 10.9782C142.08 10.7599 139.728 12.4523 139.115 14.9659L133.236 13.7484C134.076 9.21392 138.737 5.9815 144.489 5.9815C150.996 5.9815 155.029 9.29855 155.029 14.7136V28.864H149.443V26.4291H149.359C147.465 28.5626 144.688 29.695 141.842 29.4939C136.93 29.4939 133.532 26.8067 133.532 22.8598C133.532 18.7029 136.302 16.5626 143.314 15.5958ZM149.108 17.9476H149.023C148.477 18.7452 147.301 19.2074 144.281 19.7526C140.625 20.4248 139.326 21.1377 139.326 22.4398C139.326 23.7842 140.417 24.3718 142.767 24.3718C146.338 24.3718 149.108 22.7344 149.108 20.5925V17.9476ZM166.279 27.6465L155.993 6.61139H162.839L169.596 21.1378H169.681L176.357 6.61139H183.242L167.835 38.3106H160.99L166.279 27.6465Z" fill="#534D4D"/>
</svg>
