<svg width="15" height="15" viewBox="0 0 15 15" fill="none" xmlns="http://www.w3.org/2000/svg">
<path d="M9.68125 6.01875C9.56875 4.275 8.8625 2.575 7.5375 1.25C6.2 2.5875 5.4625 4.2875 5.31875 6.01875C6.11875 6.44375 6.85625 6.99375 7.5 7.6625C8.14375 7 8.88125 6.45 9.68125 6.01875ZM7.53125 3.24375C7.925 3.8875 8.2 4.60625 8.34375 5.35625C8.05 5.54375 7.775 5.75 7.50625 5.96875C7.24375 5.75625 6.9625 5.55 6.675 5.3625C6.83125 4.6125 7.11875 3.89375 7.53125 3.24375ZM7.5 9.65625C6.9875 8.875 6.3375 8.19375 5.5875 7.65625C5.50625 7.6 5.41875 7.55625 5.3375 7.49375C5.41875 7.55 5.50625 7.6 5.58125 7.65C4.3625 6.76875 2.86875 6.25 1.25 6.25C1.25 9.575 3.35 12.3875 6.26875 13.4312C6.6625 13.575 7.075 13.6812 7.5 13.75C7.925 13.675 8.33125 13.5687 8.73125 13.4312C11.65 12.3875 13.75 9.575 13.75 6.25C11.1375 6.25 8.84375 7.60625 7.5 9.65625ZM8.325 12.25C8.05 12.3438 7.775 12.4187 7.49375 12.4812C7.21875 12.425 6.95 12.35 6.69375 12.2563C4.6375 11.5188 3.13125 9.7625 2.6625 7.6625C3.35 7.825 4.00625 8.10625 4.6125 8.49375L4.6 8.5C4.68125 8.55625 4.7625 8.6125 4.84375 8.65625L4.8875 8.68125C5.50625 9.13125 6.0375 9.6875 6.45625 10.3375L7.5 11.9375L8.54375 10.3438C8.975 9.6875 9.5125 9.125 10.125 8.68125L10.1688 8.65C10.225 8.61875 10.2813 8.58125 10.3375 8.54375L10.3313 8.53125C10.9438 8.125 11.625 7.825 12.3375 7.65625C11.8687 9.7625 10.3687 11.5188 8.325 12.25ZM5.61875 7.675C5.60625 7.66875 5.59375 7.65625 5.5875 7.65C5.5875 7.65 5.59375 7.65 5.59375 7.65625C5.6 7.6625 5.60625 7.66875 5.61875 7.675Z" fill="black"/>
</svg>
