<svg width="22" height="20" viewBox="0 0 22 20" fill="none" xmlns="http://www.w3.org/2000/svg">
<path d="M16.5 3H1.83333C1.3471 3 0.880787 3.17559 0.536971 3.48816C0.193154 3.80072 0 4.22464 0 4.66667V14.6667C0 15.1087 0.193154 15.5326 0.536971 15.8452C0.880787 16.1577 1.3471 16.3333 1.83333 16.3333H16.5C16.9862 16.3333 17.4525 16.1577 17.7964 15.8452C18.1402 15.5326 18.3333 15.1087 18.3333 14.6667V4.66667C18.3333 4.22464 18.1402 3.80072 17.7964 3.48816C17.4525 3.17559 16.9862 3 16.5 3ZM16.5 6.91667L9.16667 11.3617L1.83333 6.91667V4.91417L9.16667 9.35833L16.5 4.91417V6.91667Z" fill="#A4A7AF"/>
</svg>
